<?xml version="1.0" encoding="iso-8859-1"?>
<!-- Generator: Adobe Illustrator 19.0.0, SVG Export Plug-In . SVG Version: 6.00 Build 0)  -->
<svg version="1.1" id="Layer_1" xmlns="http://www.w3.org/2000/svg" xmlns:xlink="http://www.w3.org/1999/xlink" x="0px" y="0px"
	 viewBox="0 0 511.983 511.983" style="enable-background:new 0 0 511.983 511.983;" xml:space="preserve">
<path style="fill:#ED5564;" d="M354.892,315.706l-1.438-0.406c-20.937-5.625-28.03-11.03-37.343-14.562
	c-33.061-12.624-41.653-21.687-43.841-25.968c-0.094-0.156-0.156-0.312-0.219-0.469l-0.273-38.413l-78.404-0.891l-78.387,0.891
	l-0.273,38.413c-0.07,0.156-0.133,0.312-0.219,0.469c-2.195,4.281-10.797,13.344-43.851,25.968
	c-9.32,3.531-16.397,8.937-37.334,14.562l-1.437,0.406C12.82,322.018,0,339.674,0,359.611v55.467h193.375h193.391v-55.467
	C386.766,339.674,373.938,322.018,354.892,315.706z"/>
<path style="fill:#EAC6BB;" d="M302.16,161.595c0,70.685-67.38,135.738-108.785,135.738c-41.397,0-108.777-65.054-108.777-135.738
	S133.299,44.287,193.375,44.287C253.459,44.287,302.16,90.91,302.16,161.595z"/>
<path style="fill:#965353;" d="M249.529,50.396c0,0-2.109-18.812,20.406-32.343c9.539-5.734-142.948-32.905-181.212,63.45
	c-14.375,36.187-3.75,89.466-3.75,89.466l33.139-59.42c0,0,36.124,8.438,75.263,8.438c39.146,0,76.583-8.438,76.583-8.438
	l32.201,50.201c0,0,12.39-48.186-1.484-80.153C286.802,49.646,249.529,50.396,249.529,50.396z"/>
<path style="opacity:0.1;fill:#080808;enable-background:new    ;" d="M354.892,326.361l-1.438-0.406
	c-20.937-5.624-28.03-11.03-37.343-14.562c-33.061-12.593-41.653-21.686-43.841-25.967c-0.094-0.156-0.156-0.312-0.219-0.469
	l-0.211-28.882c0.023-0.031,0.047-0.078,0.078-0.109l-0.078-10.562c16.71-22.343,28.896-49.936,30.193-78.716
	c-42.35,28.171-93.137,33.342-115.066,34.201c-8.89,0.156-16.117,7.391-16.273,16.25l-0.07,1.766l0.016,0.406
	c2.812,77.834,33.882,144.705,73.904,195.767h142.221v-44.78C386.766,350.33,373.938,332.674,354.892,326.361z"/>
<path style="fill:#FFCE54;" d="M511.918,227.686c-0.219-8.812-7.375-15.969-16.156-16.125c-24.467-0.953-84.823-7.25-129.276-44.748
	l0.188-1.062l-6.03-3.766c-2.594-1.609-5.562-2.469-8.594-2.5h-0.125H351.8c-4.031,0.062-7.874,1.578-10.858,4.297
	c-44.765,40.186-107.567,46.795-132.636,47.779c-8.891,0.156-16.117,7.375-16.273,16.234l-0.07,1.78l0.016,0.406
	c4.477,124.066,80.748,220.281,150.635,268.904l0.062,0.062c2.75,1.875,5.952,2.875,9.28,2.875c3.344,0,6.562-1,9.281-2.875
	l1.03-0.688c38.406-26.968,73.7-64.686,99.372-106.245c14.797-23.906,26.53-49.187,34.904-75.092
	c9.219-28.467,14.406-57.881,15.422-87.457l0.016-0.484L511.918,227.686z"/>
<path style="opacity:0.2;fill:#FFFFFF;enable-background:new    ;" d="M511.918,227.686c-0.219-8.812-7.375-15.969-16.156-16.125
	c-24.467-0.953-84.823-7.25-129.276-44.748l0.188-1.062l-6.03-3.766c-2.594-1.609-5.562-2.469-8.594-2.5h-0.125H351.8
	c-1.781,0.016-3.5,0.344-5.156,0.922c1.156,0.406,2.281,0.922,3.344,1.578l6,3.766l-0.156,1.062
	c44.437,37.498,104.793,43.795,129.261,44.748c8.78,0.156,15.937,7.312,16.14,16.125l0.094,1.297l-0.031,0.484
	c-1.016,29.576-6.188,58.99-15.405,87.457c-8.375,25.905-20.124,51.186-34.905,75.092c-25.686,41.56-60.966,79.277-99.371,106.245
	l-1.031,0.688c-1.234,0.844-2.562,1.5-3.938,1.969c1.688,0.594,3.484,0.906,5.312,0.906c3.344,0,6.562-1,9.281-2.875l1.03-0.688
	c38.406-26.968,73.7-64.686,99.372-106.245c14.797-23.906,26.53-49.187,34.904-75.092c9.219-28.467,14.406-57.881,15.422-87.457
	l0.016-0.484L511.918,227.686z"/>
<path style="fill:#434A54;" d="M351.955,404.797c-1.594,0-3.234-0.344-4.766-1.125c-5.265-2.656-7.39-9.062-4.765-14.312
	l24.357-48.562l-46.732-0.062c-3.688,0-7.124-1.906-9.062-5.031c-1.938-3.156-2.125-7.094-0.469-10.375l31.905-63.942
	c2.625-5.28,9.03-7.421,14.312-4.78c5.265,2.624,7.405,9.03,4.781,14.296l-24.218,48.521l46.764,0.062
	c3.703,0,7.141,1.906,9.078,5.062c1.938,3.125,2.109,7.062,0.453,10.375L361.5,398.922
	C359.642,402.64,355.861,404.797,351.955,404.797z"/>
<g>
</g>
<g>
</g>
<g>
</g>
<g>
</g>
<g>
</g>
<g>
</g>
<g>
</g>
<g>
</g>
<g>
</g>
<g>
</g>
<g>
</g>
<g>
</g>
<g>
</g>
<g>
</g>
<g>
</g>
</svg>
